<?xml version="1.0" standalone="no"?>
<!DOCTYPE svg PUBLIC "-//W3C//DTD SVG 20010904//EN"
 "http://www.w3.org/TR/2001/REC-SVG-20010904/DTD/svg10.dtd">
<svg version="1.0" xmlns="http://www.w3.org/2000/svg"
 width="945.000000pt" height="945.000000pt" viewBox="0 0 945.000000 945.000000"
 preserveAspectRatio="xMidYMid meet">
<metadata>
Created by potrace 1.11, written by Peter Selinger 2001-2013
</metadata>
<g transform="translate(0.000000,945.000000) scale(0.100000,-0.100000)"
fill="#000000" stroke="none">
<path d="M0 4725 l0 -4725 4725 0 4725 0 0 4725 0 4725 -4725 0 -4725 0 0
-4725z m4805 3080 c42 -17 55 -46 55 -123 l0 -57 68 -13 c151 -29 232 -107
202 -196 -6 -19 -17 -40 -25 -46 -11 -9 -9 -17 11 -47 24 -36 26 -37 182 -69
355 -73 698 -219 992 -423 298 -206 588 -514 765 -813 260 -438 385 -891 385
-1393 0 -419 -85 -788 -270 -1170 -204 -423 -527 -794 -915 -1052 -146 -97
-130 -106 -127 74 2 86 1 162 -2 170 -5 11 -12 11 -43 -2 -20 -9 -41 -21 -45
-28 -4 -7 -7 -202 -5 -435 1 -332 -1 -422 -10 -422 -7 0 -562 0 -1233 0 -671
0 -1226 0 -1232 0 -10 0 -12 91 -10 427 2 438 1 461 -35 431 -8 -7 -13 -7 -13
0 0 5 -11 12 -25 15 l-26 4 1 -168 c1 -93 -2 -169 -7 -169 -14 0 -145 81 -243
150 -358 256 -648 600 -846 1005 -459 940 -332 2046 328 2865 106 131 323 342
451 438 345 260 771 447 1167 513 69 11 77 15 101 48 l25 36 -24 35 c-57 83 5
172 150 214 31 9 67 16 81 16 24 0 25 3 29 69 4 72 20 104 63 122 29 11 42 11
80 -6z m1292 -6057 c-3 -8 -6 -5 -6 6 -1 11 2 17 5 13 3 -3 4 -12 1 -19z"/>
<path d="M4540 7480 c8 -5 22 -9 30 -9 10 0 8 3 -5 9 -27 12 -43 12 -25 0z"/>
<path d="M4955 7480 c-13 -6 -15 -9 -5 -9 8 0 22 4 30 9 18 12 2 12 -25 0z"/>
<path d="M3475 3475 l-25 -24 0 -321 c0 -269 2 -320 14 -320 8 0 30 -19 50
-42 l36 -43 -3 338 c-1 264 1 337 11 337 6 0 564 0 1240 0 l1227 0 3 -300 c1
-165 5 -300 8 -300 3 0 25 20 50 45 l44 45 0 285 c0 280 0 285 -22 305 -22 20
-27 20 -1315 20 l-1294 0 -24 -25z"/>
<path d="M4380 3030 l0 -70 65 0 65 0 0 70 0 70 -65 0 -65 0 0 -70z"/>
<path d="M3672 3013 c2 -58 2 -58 5 -10 2 26 8 45 13 42 6 -3 7 1 4 9 -13 34
-24 13 -22 -41z"/>
<path d="M3783 3015 c0 -22 2 -30 4 -17 2 12 2 30 0 40 -3 9 -5 -1 -4 -23z"/>
<path d="M4570 2840 l0 -70 65 0 65 0 0 70 0 70 -65 0 -65 0 0 -70z"/>
<path d="M4940 2840 l0 -70 75 0 75 0 0 70 0 70 -75 0 -75 0 0 -70z"/>
<path d="M5140 2840 l0 -70 70 0 70 0 0 70 0 70 -70 0 -70 0 0 -70z"/>
<path d="M5520 2840 l0 -70 70 0 70 0 0 70 0 70 -70 0 -70 0 0 -70z"/>
<path d="M3990 2653 l0 -73 70 0 70 0 0 69 0 69 -70 4 -70 3 0 -72z"/>
<path d="M4180 2650 l0 -70 70 0 70 0 0 70 0 70 -70 0 -70 0 0 -70z"/>
<path d="M4950 2650 l0 -70 70 0 70 0 0 70 0 70 -70 0 -70 0 0 -70z"/>
<path d="M3656 2675 c8 -37 14 -45 14 -19 0 10 -5 26 -10 34 -8 11 -9 7 -4
-15z"/>
<path d="M3780 2685 c0 -8 2 -15 4 -15 2 0 6 7 10 15 3 8 1 15 -4 15 -6 0 -10
-7 -10 -15z"/>
<path d="M3701 2654 c0 -11 3 -14 6 -6 3 7 2 16 -1 19 -3 4 -6 -2 -5 -13z"/>
<path d="M3671 2613 c-1 -26 14 -31 23 -7 3 8 2 13 -3 9 -5 -3 -12 1 -14 7 -3
7 -6 3 -6 -9z"/>
<path d="M4180 2460 l0 -70 70 0 70 0 0 70 0 70 -70 0 -70 0 0 -70z"/>
<path d="M4570 2460 l0 -70 65 0 65 0 0 70 0 70 -65 0 -65 0 0 -70z"/>
<path d="M4760 2460 l0 -70 65 0 65 0 0 70 0 70 -65 0 -65 0 0 -70z"/>
<path d="M5578 2342 l-58 -3 0 -64 0 -65 70 0 70 0 0 64 c0 73 0 72 -82 68z"/>
<path d="M3733 2323 c9 -2 23 -2 30 0 6 3 -1 5 -18 5 -16 0 -22 -2 -12 -5z"/>
<path d="M3733 2263 c9 -2 23 -2 30 0 6 3 -1 5 -18 5 -16 0 -22 -2 -12 -5z"/>
<path d="M3702 2230 c0 -14 2 -19 5 -12 2 6 2 18 0 25 -3 6 -5 1 -5 -13z"/>
<path d="M4560 2090 l0 -70 75 0 75 0 0 70 0 70 -75 0 -75 0 0 -70z"/>
<path d="M5330 2091 l0 -69 70 -4 70 -3 0 73 0 72 -70 0 -70 0 0 -69z"/>
</g>
</svg>
